<?xml version="1.0" standalone="no"?>
<!DOCTYPE svg PUBLIC "-//W3C//DTD SVG 20010904//EN"
 "http://www.w3.org/TR/2001/REC-SVG-20010904/DTD/svg10.dtd">
<svg version="1.0" xmlns="http://www.w3.org/2000/svg"
 width="1616.000000pt" height="973.000000pt" viewBox="0 0 1616.000000 973.000000"
 preserveAspectRatio="xMidYMid meet">
<metadata>
Created by potrace 1.16, written by Peter Selinger 2001-2019
</metadata>
<g transform="translate(0.000000,973.000000) scale(0.100000,-0.100000)"
fill="#000000" stroke="none">
<path d="M8002 8919 c-70 -46 -67 -3 -70 -819 l-2 -735 22 -44 c31 -60 65 -83
130 -88 62 -5 106 17 138 69 20 32 20 49 18 795 l-3 763 -37 37 c-34 34 -43
37 -100 40 -52 3 -69 0 -96 -18z"/>
<path d="M7544 8184 c-66 -40 -163 -119 -210 -172 l-31 -34 -75 35 c-111 53
-215 78 -350 84 -192 9 -356 -28 -515 -118 -103 -58 -273 -225 -333 -326 -99
-170 -135 -317 -127 -527 6 -158 20 -226 77 -358 l37 -86 -14 -69 c-21 -97
-12 -303 17 -402 61 -213 193 -400 357 -506 l60 -39 6 -120 c12 -245 93 -439
251 -604 78 -82 162 -142 269 -192 85 -40 226 -80 283 -80 25 0 36 -8 56 -37
121 -183 313 -321 533 -385 70 -20 102 -23 250 -23 187 0 249 12 389 75 144
64 294 188 380 313 36 52 43 57 76 57 61 0 221 45 301 85 107 54 185 113 270
203 156 166 238 378 239 617 0 90 0 91 31 109 16 10 57 40 90 67 161 135 279
347 310 561 12 83 7 277 -8 331 -7 22 -1 43 29 104 94 193 118 449 62 658 -24
87 -104 250 -157 321 -53 70 -154 167 -221 214 -69 47 -202 107 -291 132 -68
18 -106 22 -245 22 -150 0 -173 -3 -253 -27 -48 -15 -115 -41 -148 -58 l-60
-30 -88 83 c-113 106 -199 158 -261 158 -87 0 -148 -68 -137 -153 7 -53 28
-81 91 -121 114 -73 191 -163 266 -313 51 -103 72 -194 72 -318 1 -321 -196
-593 -507 -702 -74 -26 -91 -28 -230 -28 -136 1 -157 3 -230 28 -244 82 -431
285 -492 535 -23 95 -20 247 6 344 49 188 167 352 325 453 31 20 66 51 77 68
39 64 14 158 -50 192 -52 26 -110 19 -177 -21z m-550 -390 c33 -9 81 -26 108
-40 l48 -24 -21 -52 c-117 -297 -72 -677 113 -946 l31 -46 -39 -34 c-55 -48
-187 -110 -269 -127 -212 -44 -424 17 -584 170 -139 133 -204 281 -204 465 0
175 60 320 186 448 177 180 399 245 631 186z m2562 -22 c193 -71 323 -201 397
-396 29 -75 31 -90 31 -216 1 -122 -2 -142 -26 -208 -62 -171 -175 -300 -330
-377 -161 -79 -314 -93 -473 -44 -87 26 -125 46 -197 99 l-57 43 41 60 c59 86
116 214 145 325 22 83 26 119 26 247 1 159 -16 261 -62 368 -12 27 -21 52 -21
57 0 9 86 44 160 65 39 11 88 14 170 11 97 -3 128 -8 196 -34z m-2005 -1336
c78 -47 194 -97 269 -116 l45 -11 0 -142 c1 -125 4 -154 29 -240 34 -119 35
-118 -75 -221 -136 -128 -281 -182 -469 -173 -179 8 -308 65 -435 192 -117
118 -181 254 -192 413 l-6 82 107 0 c122 0 228 19 336 61 83 32 213 109 275
163 22 19 41 35 41 36 1 0 35 -20 75 -44z m1165 23 c34 -39 139 -108 225 -149
127 -60 220 -82 379 -86 l135 -4 -2 -75 c-5 -226 -148 -440 -365 -550 -190
-95 -439 -85 -625 27 -115 69 -227 202 -274 327 -32 84 -51 206 -43 277 l6 61
97 16 c122 20 245 64 352 127 46 27 87 49 90 49 3 1 14 -9 25 -20z m1239 -66
c-17 -146 -73 -277 -165 -390 -71 -86 -81 -87 -64 -10 7 34 13 119 14 189 0
117 2 127 20 133 27 8 162 98 179 118 21 27 24 21 16 -40z m-3585 -56 l64 -36
2 -123 c2 -68 9 -150 18 -183 8 -33 13 -61 12 -63 -2 -1 -35 31 -73 72 -101
108 -161 240 -176 388 l-5 48 47 -34 c25 -18 75 -50 111 -69z m1751 -802 c45
-51 181 -151 258 -189 84 -43 217 -85 292 -93 l58 -6 6 -51 c7 -57 -7 -162
-31 -234 -73 -213 -254 -381 -474 -437 -48 -13 -94 -16 -175 -13 -123 5 -213
30 -312 90 -72 43 -179 149 -222 221 -68 115 -109 278 -96 380 l7 47 43 0 c70
0 225 45 322 93 95 48 227 146 264 197 13 16 24 30 26 30 2 0 17 -16 34 -35z
m1389 -45 c-23 -162 -84 -284 -202 -402 -62 -62 -95 -85 -170 -122 -51 -25
-104 -48 -117 -52 -23 -6 -24 -5 -17 32 21 127 27 197 21 255 l-6 67 68 22
c140 45 282 131 377 229 28 28 51 49 53 47 2 -2 -1 -36 -7 -76z m-2659 -91
c67 -45 179 -100 247 -120 l42 -12 0 -106 c1 -58 7 -137 14 -176 8 -38 12 -72
10 -74 -2 -3 -52 19 -111 48 -87 44 -120 67 -183 130 -117 115 -187 262 -203
423 l-5 48 64 -60 c35 -32 91 -78 125 -101z"/>
<path d="M11684 3838 c-29 -17 -71 -69 -84 -102 -7 -18 -10 -355 -10 -990 0
-1043 -1 -1015 55 -1126 36 -71 76 -113 142 -147 181 -96 349 -58 382 86 22
101 -38 190 -142 210 -27 5 -54 14 -60 20 -9 9 -13 262 -17 974 -6 1074 0 995
-76 1054 -30 22 -49 28 -103 30 -41 2 -74 -1 -87 -9z"/>
<path d="M5720 3763 c-87 -13 -176 -40 -250 -75 -68 -33 -100 -56 -160 -117
-117 -119 -170 -247 -170 -417 0 -248 119 -424 375 -552 33 -16 173 -68 311
-115 287 -97 353 -128 416 -191 66 -66 83 -106 82 -196 -2 -171 -97 -274 -293
-315 -148 -31 -302 -14 -430 47 -70 34 -172 127 -227 209 -37 55 -84 79 -154
79 -66 0 -117 -28 -154 -83 -24 -37 -27 -50 -24 -107 3 -56 10 -74 46 -132
173 -270 538 -420 923 -379 347 37 555 176 652 434 27 73 31 97 35 218 3 104
0 150 -12 200 -65 254 -257 406 -701 554 -356 119 -475 204 -475 340 0 110 85
207 212 241 138 36 291 22 415 -37 54 -26 90 -55 172 -138 l104 -106 61 0
c111 0 186 75 186 187 0 48 -5 64 -40 116 -109 164 -303 285 -520 326 -76 15
-310 20 -380 9z"/>
<path d="M2237 3726 c-50 -18 -85 -51 -108 -101 -18 -38 -19 -89 -19 -1044 0
-990 0 -1005 20 -1047 41 -84 146 -124 235 -90 53 21 100 71 114 123 7 23 11
180 11 404 l0 367 283 4 c312 5 372 15 496 77 76 39 190 145 235 220 102 170
132 409 77 624 -59 226 -217 385 -448 449 -73 20 -105 22 -468 25 -317 2 -397
0 -428 -11z m787 -373 c84 -23 154 -92 181 -178 43 -135 16 -301 -62 -382 -81
-83 -101 -88 -395 -91 l-258 -3 0 335 0 336 237 0 c192 0 248 -3 297 -17z"/>
<path d="M3870 3594 c-42 -18 -77 -49 -96 -86 -17 -32 -19 -144 -3 -185 13
-34 55 -80 91 -99 42 -22 153 -18 206 7 113 55 136 227 43 320 -57 57 -164 76
-241 43z"/>
<path d="M8990 3075 c-44 -8 -106 -30 -154 -54 l-80 -39 -42 37 c-22 21 -58
44 -79 51 -81 27 -176 -14 -214 -92 -21 -44 -21 -46 -21 -1028 0 -978 0 -984
21 -1027 29 -60 87 -93 163 -93 31 0 70 7 85 15 39 20 78 69 91 113 5 21 10
148 10 293 l0 257 68 -34 c152 -76 361 -85 546 -23 277 92 424 311 458 683 20
226 -15 446 -100 616 -122 247 -435 382 -752 325z m242 -345 c125 -38 192
-113 227 -251 27 -108 34 -201 22 -316 -21 -201 -76 -303 -195 -363 -63 -31
-76 -34 -160 -35 -83 0 -97 3 -158 33 -97 47 -152 127 -189 272 -20 78 -17
305 5 394 55 227 233 333 448 266z"/>
<path d="M10624 3081 c-73 -12 -150 -38 -213 -73 l-54 -30 -33 37 c-60 64
-133 81 -209 46 -50 -22 -91 -69 -105 -119 -14 -51 -14 -1933 0 -1984 13 -44
52 -93 91 -113 15 -8 54 -15 85 -15 76 0 134 33 163 93 20 41 21 60 21 315 l0
272 68 -34 c102 -51 202 -70 336 -63 203 11 336 65 457 186 118 119 173 236
205 442 24 152 15 389 -20 523 -39 149 -86 237 -175 327 -87 87 -177 139 -299
170 -87 22 -243 32 -318 20z m246 -363 c149 -68 205 -175 217 -413 13 -280
-68 -466 -228 -521 -79 -28 -208 -26 -274 4 -99 45 -156 123 -196 268 -19 69
-21 96 -16 229 5 166 23 243 75 326 31 48 114 110 172 128 61 18 188 8 250
-21z"/>
<path d="M3864 3051 c-18 -10 -45 -36 -60 -57 l-29 -37 -3 -681 c-2 -375 0
-696 3 -714 7 -40 59 -101 102 -118 46 -20 122 -17 163 5 19 10 49 37 65 60
l30 43 0 691 c0 659 -1 694 -19 730 -31 63 -77 91 -155 95 -52 2 -72 -1 -97
-17z"/>
<path d="M6960 3052 c-19 -10 -48 -41 -65 -67 l-30 -48 -3 -436 c-3 -479 4
-601 43 -718 81 -240 257 -356 566 -370 330 -15 550 84 649 292 64 134 64 131
68 690 2 344 0 522 -7 546 -23 78 -94 128 -181 129 -57 0 -105 -24 -144 -73
l-31 -39 -6 -506 c-3 -343 -9 -518 -17 -541 -33 -97 -107 -141 -246 -149 -168
-8 -263 32 -308 132 -23 51 -23 54 -28 551 -5 455 -7 503 -23 533 -42 76 -163
114 -237 74z"/>
<path d="M13262 3053 c-18 -9 -43 -34 -56 -57 -13 -23 -106 -242 -206 -489
-101 -246 -184 -446 -185 -445 -2 2 -84 205 -184 452 -99 247 -188 460 -196
473 -31 47 -74 64 -146 61 -55 -3 -73 -9 -104 -32 -50 -38 -79 -104 -72 -165
3 -29 99 -271 262 -659 199 -477 255 -619 250 -640 -11 -44 -77 -184 -118
-250 -61 -97 -157 -152 -267 -152 -52 0 -99 -25 -134 -73 -29 -40 -30 -144 0
-183 39 -54 70 -68 147 -72 95 -5 204 19 297 64 97 48 196 147 265 264 29 50
184 408 379 875 333 801 350 847 332 919 -8 32 -61 93 -97 112 -37 19 -126 18
-167 -3z"/>
</g>
</svg>
